<svg xmlns="http://www.w3.org/2000/svg" viewBox="0 0 100 100">
  <!-- Background circle -->
  <circle cx="50" cy="50" r="45" fill="#e6f7ff" stroke="#333" stroke-width="2"/>
  
  <!-- Sun -->
  <circle cx="75" cy="25" r="10" fill="#ffcc00" stroke="#ff9900" stroke-width="1"/>
  <line x1="75" y1="10" x2="75" y2="5" stroke="#ff9900" stroke-width="2"/>
  <line x1="75" y1="45" x2="75" y2="40" stroke="#ff9900" stroke-width="2"/>
  <line x1="60" y1="25" x2="55" y2="25" stroke="#ff9900" stroke-width="2"/>
  <line x1="95" y1="25" x2="90" y2="25" stroke="#ff9900" stroke-width="2"/>
  <line x1="65" y1="15" x2="62" y2="12" stroke="#ff9900" stroke-width="2"/>
  <line x1="85" y1="35" x2="88" y2="38" stroke="#ff9900" stroke-width="2"/>
  <line x1="65" y1="35" x2="62" y2="38" stroke="#ff9900" stroke-width="2"/>
  <line x1="85" y1="15" x2="88" y2="12" stroke="#ff9900" stroke-width="2"/>
  
  <!-- Ground -->
  <path d="M10,70 Q30,65,50,70 T90,70 L90,85 L10,85 Z" fill="#8bc34a"/>
  
  <!-- Father figure (taller) -->
  <circle cx="35" cy="35" r="6" fill="#3f51b5" stroke="#333" stroke-width="1"/> <!-- Head -->
  <line x1="35" y1="41" x2="35" y2="55" stroke="#3f51b5" stroke-width="3.5"/> <!-- Body -->
  <line x1="35" y1="55" x2="28" y2="68" stroke="#3f51b5" stroke-width="3.5"/> <!-- Left leg -->
  <line x1="35" y1="55" x2="42" y2="68" stroke="#3f51b5" stroke-width="3.5"/> <!-- Right leg -->
  <line x1="35" y1="45" x2="25" y2="52" stroke="#3f51b5" stroke-width="3.5"/> <!-- Left arm -->
  <line x1="35" y1="45" x2="43" y2="42" stroke="#3f51b5" stroke-width="3.5"/> <!-- Right arm -->
  
  <!-- Son figure (smaller) -->
  <circle cx="50" cy="45" r="4" fill="#2196f3" stroke="#333" stroke-width="1"/> <!-- Head -->
  <line x1="50" y1="49" x2="50" y2="58" stroke="#2196f3" stroke-width="2.5"/> <!-- Body -->
  <line x1="50" y1="58" x2="45" y2="68" stroke="#2196f3" stroke-width="2.5"/> <!-- Left leg -->
  <line x1="50" y1="58" x2="55" y2="68" stroke="#2196f3" stroke-width="2.5"/> <!-- Right leg -->
  <line x1="50" y1="52" x2="44" y2="58" stroke="#2196f3" stroke-width="2.5"/> <!-- Left arm -->
  <line x1="50" y1="52" x2="53" y2="57" stroke="#2196f3" stroke-width="2.5"/> <!-- Right arm -->
  
  <!-- Father and son holding hands -->
  <line x1="43" y1="42" x2="44" y2="58" stroke="#333" stroke-width="1.5" stroke-dasharray="2,1"/>
  
  <!-- Path/trail -->
  <path d="M15,75 Q35,60,55,75 T95,70" fill="none" stroke="#a1887f" stroke-width="2" stroke-dasharray="3,2"/>
  
  <!-- Text label -->
  <text x="50" y="95" font-family="Arial, sans-serif" font-size="10" font-weight="bold" text-anchor="middle" fill="#333">Go for a Walk</text>
</svg>